<?xml version="1.0" encoding="UTF-8"?>
<svg width="32px" height="32px" viewBox="0 0 32 32" version="1.1" xmlns="http://www.w3.org/2000/svg" xmlns:xlink="http://www.w3.org/1999/xlink">
    <!-- Generator: Sketch 48.1 (47250) - http://www.bohemiancoding.com/sketch -->
    <title>loading@2x copy 3</title>
    <desc>Created with Sketch.</desc>
    <defs>
        <linearGradient x1="100%" y1="0%" x2="0%" y2="100%" id="linearGradient-1">
            <stop stop-color="#9185FF" offset="0%"></stop>
            <stop stop-color="#6392FF" offset="100%"></stop>
        </linearGradient>
    </defs>
    <g id="1002_驾驶得分详情02" stroke="none" stroke-width="1" fill="none" fill-rule="evenodd" transform="translate(-171.000000, -582.000000)">
        <path d="M193.442469,591.920703 L197.169185,587.021187 C197.646978,586.392791 197.501691,585.512967 196.844403,585.056176 C196.187115,584.599385 195.267206,584.738637 194.789413,585.366681 L191.062697,590.266198 C190.584904,590.894593 190.730191,591.774066 191.387479,592.230857 C191.648629,592.412659 191.951342,592.50022 192.25148,592.50022 C192.706101,592.50022 193.154469,592.299077 193.442469,591.920703 M195.953552,596.699956 L201.982797,594.828484 C202.75558,594.588308 203.178568,593.794989 202.927718,593.056176 C202.676499,592.317011 201.847441,591.914022 201.073923,592.152791 L195.045045,594.024264 C194.272263,594.26444 193.848906,595.057758 194.100125,595.796571 C194.302056,596.391209 194.878792,596.769231 195.498931,596.769231 C195.649735,596.769231 195.802747,596.746725 195.953552,596.699956 M202.927718,602.943824 C203.178568,602.205011 202.75558,601.411692 201.982797,601.171516 L195.953552,599.300044 C195.181137,599.059868 194.350976,599.464615 194.100125,600.203429 C193.848906,600.942242 194.272263,601.735912 195.045045,601.975736 L201.073923,603.84756 C201.225096,603.89433 201.378107,603.916484 201.528912,603.916484 C202.14905,603.916484 202.725786,603.538462 202.927718,602.943824 M196.844403,610.943824 C197.501691,610.486681 197.646978,609.607209 197.169185,608.978813 L193.442469,604.079648 C192.965044,603.451604 192.045135,603.312352 191.387479,603.769143 C190.730191,604.226286 190.584904,605.105758 191.062697,605.734154 L194.789413,610.633319 C195.077413,611.012044 195.525781,611.212835 195.980402,611.212835 C196.28054,611.212835 196.583253,611.125275 196.844403,610.943824 M188.471431,612.593407 L188.471431,606.537319 C188.471431,605.760527 187.812672,605.130725 187.000166,605.130725 C186.187659,605.130725 185.5289,605.760527 185.5289,606.537319 L185.5289,612.593407 C185.5289,613.370198 186.187659,614 187.000166,614 C187.812672,614 188.471431,613.370198 188.471431,612.593407 M179.210918,610.633319 L182.937266,605.734154 C183.415427,605.105758 183.27014,604.226286 182.612852,603.769143 C181.955564,603.312352 181.035655,603.451604 180.557862,604.079648 L176.831147,608.978813 C176.353353,609.607209 176.498641,610.486681 177.155561,610.943824 C177.417078,611.125275 177.719791,611.212835 178.019929,611.212835 C178.47455,611.212835 178.922918,611.012044 179.210918,610.633319 M172.92604,603.84756 L178.955286,601.975736 C179.728068,601.735912 180.151057,600.942242 179.900206,600.203429 C179.649356,599.464615 178.81993,599.061626 178.046412,599.300044 L172.017534,601.171516 C171.244752,601.411692 170.821395,602.205011 171.072246,602.943824 C171.274545,603.538462 171.851281,603.916484 172.471419,603.916484 C172.622224,603.916484 172.775236,603.893978 172.92604,603.84756 M179.900206,595.796571 C180.151057,595.057758 179.728068,594.26444 178.955286,594.024264 L172.92604,592.152791 C172.153258,591.912615 171.323464,592.317011 171.072246,593.056176 C170.821395,593.794989 171.244752,594.588308 172.017534,594.828484 L178.046412,596.699956 C178.197584,596.747077 178.350596,596.769231 178.501401,596.769231 C179.121539,596.769231 179.698275,596.390857 179.900206,595.796571 M182.612852,592.230857 C183.27014,591.774066 183.415427,590.894593 182.937266,590.266198 L179.210918,585.366681 C178.733125,584.738286 177.812848,584.599033 177.155561,585.056176 C176.498641,585.512967 176.353353,586.392791 176.831147,587.021187 L180.557862,591.920703 C180.845494,592.299429 181.293863,592.50022 181.748851,592.50022 C182.048622,592.50022 182.351702,592.412659 182.612852,592.230857 M187.000166,590.869626 C186.187659,590.869626 185.5289,590.239824 185.5289,589.463033 L185.5289,583.406593 C185.5289,582.629802 186.187659,582 187.000166,582 C187.812672,582 188.471431,582.629802 188.471431,583.406593 L188.471431,589.463033 C188.471431,590.239824 187.812672,590.869626 187.000166,590.869626" id="loading@2x-copy-3" fill="url(#linearGradient-1)"></path>
    </g>
</svg>