<?xml version="1.0" encoding="UTF-8"?>
<svg width="32px" height="32px" viewBox="0 0 32 32" version="1.1" xmlns="http://www.w3.org/2000/svg" xmlns:xlink="http://www.w3.org/1999/xlink">
    <!-- Generator: Sketch 47.1 (45422) - http://www.bohemiancoding.com/sketch -->
    <title>loading@2x copy 3</title>
    <desc>Created with Sketch.</desc>
    <defs>
        <linearGradient x1="100%" y1="0%" x2="0%" y2="100%" id="linearGradient-1">
            <stop stop-color="#9185FF" offset="0%"></stop>
            <stop stop-color="#6392FF" offset="100%"></stop>
        </linearGradient>
    </defs>
    <g id="Page-1" stroke="none" stroke-width="1" fill="none" fill-rule="evenodd">
        <g id="1-4-实时照片--正在加载" transform="translate(-172.000000, -308.000000)" fill="url(#linearGradient-1)">
            <g id="Group-56" transform="translate(137.000000, 294.000000)">
                <g id="Group">
                    <path d="M57.4424692,23.9207033 L61.1691846,19.0211868 C61.6469781,18.3927912 61.5016906,17.512967 60.8444028,17.0561758 C60.1871149,16.5993846 59.2672062,16.7386374 58.7894128,17.3666813 L55.0626974,22.2661978 C54.5849039,22.8945934 54.7301914,23.7740659 55.3874792,24.2308571 C55.6486288,24.4126593 55.9513417,24.5002198 56.2514798,24.5002198 C56.7061009,24.5002198 57.154469,24.2990769 57.4424692,23.9207033 M59.9535515,28.699956 L65.9827974,26.8284835 C66.7555796,26.5883077 67.1785684,25.794989 66.9277176,25.0561758 C66.676499,24.317011 65.847441,23.914022 65.0739231,24.1527912 L59.0450451,26.0242637 C58.2722629,26.2644396 57.8489063,27.0577582 58.1001249,27.7965714 C58.3020561,28.3912088 58.8787921,28.7692308 59.4989305,28.7692308 C59.6497352,28.7692308 59.8027468,28.7467253 59.9535515,28.699956 M66.9277176,34.9438242 C67.1785684,34.205011 66.7555796,33.4116923 65.9827974,33.1715165 L59.9535515,31.300044 C59.1811372,31.0598681 58.3509756,31.4646154 58.1001249,32.2034286 C57.8489063,32.9422418 58.2722629,33.7359121 59.0450451,33.9757363 L65.0739231,35.8475604 C65.2250957,35.8943297 65.3781073,35.9164835 65.528912,35.9164835 C66.1490504,35.9164835 66.7257864,35.5384615 66.9277176,34.9438242 M60.8444028,42.9438242 C61.5016906,42.4866813 61.6469781,41.6072088 61.1691846,40.9788132 L57.4424692,36.0796484 C56.9650436,35.4516044 56.0451349,35.3123516 55.3874792,35.7691429 C54.7301914,36.2262857 54.5849039,37.1057582 55.0626974,37.7341538 L58.7894128,42.6333187 C59.077413,43.012044 59.5257811,43.2128352 59.9804021,43.2128352 C60.2805403,43.2128352 60.5832532,43.1252747 60.8444028,42.9438242 M52.4714311,44.5934066 L52.4714311,38.5373187 C52.4714311,37.7605275 51.812672,37.1307253 51.0001656,37.1307253 C50.1876593,37.1307253 49.5289002,37.7605275 49.5289002,38.5373187 L49.5289002,44.5934066 C49.5289002,45.3701978 50.1876593,46 51.0001656,46 C51.812672,46 52.4714311,45.3701978 52.4714311,44.5934066 M43.2109185,42.6333187 L46.9372661,37.7341538 C47.4154273,37.1057582 47.2701399,36.2262857 46.612852,35.7691429 C45.9555642,35.3123516 45.0356555,35.4516044 44.557862,36.0796484 L40.8311466,40.9788132 C40.3533531,41.6072088 40.4986406,42.4866813 41.1555606,42.9438242 C41.4170781,43.1252747 41.7197909,43.2128352 42.0199291,43.2128352 C42.4745501,43.2128352 42.9229183,43.012044 43.2109185,42.6333187 M36.9260403,35.8475604 L42.9552861,33.9757363 C43.7280683,33.7359121 44.1510571,32.9422418 43.9002063,32.2034286 C43.6493556,31.4646154 42.8199297,31.0616264 42.0464119,31.300044 L36.0175338,33.1715165 C35.2447517,33.4116923 34.821395,34.205011 35.0722458,34.9438242 C35.2745448,35.5384615 35.8512808,35.9164835 36.4714192,35.9164835 C36.6222239,35.9164835 36.7752356,35.893978 36.9260403,35.8475604 M43.9002063,27.7965714 C44.1510571,27.0577582 43.7280683,26.2644396 42.9552861,26.0242637 L36.9260403,24.1527912 C36.1532581,23.9126154 35.3234644,24.317011 35.0722458,25.0561758 C34.821395,25.794989 35.2447517,26.5883077 36.0175338,26.8284835 L42.0464119,28.699956 C42.1975844,28.7470769 42.350596,28.7692308 42.5014007,28.7692308 C43.1215391,28.7692308 43.6982752,28.3908571 43.9002063,27.7965714 M46.612852,24.2308571 C47.2701399,23.7740659 47.4154273,22.8945934 46.9372661,22.2661978 L43.2109185,17.3666813 C42.733125,16.7382857 41.8128485,16.599033 41.1555606,17.0561758 C40.4986406,17.512967 40.3533531,18.3927912 40.8311466,19.0211868 L44.557862,23.9207033 C44.8454944,24.2994286 45.2938625,24.5002198 45.7488514,24.5002198 C46.0486217,24.5002198 46.3517024,24.4126593 46.612852,24.2308571 M51.0001656,22.8696264 C50.1876593,22.8696264 49.5289002,22.2398242 49.5289002,21.463033 L49.5289002,15.4065934 C49.5289002,14.6298022 50.1876593,14 51.0001656,14 C51.812672,14 52.4714311,14.6298022 52.4714311,15.4065934 L52.4714311,21.463033 C52.4714311,22.2398242 51.812672,22.8696264 51.0001656,22.8696264" id="loading@2x-copy-3"></path>
                </g>
            </g>
        </g>
    </g>
</svg>