<?xml version="1.0" encoding="utf-8"?>
<!-- Generator: Adobe Illustrator 21.0.0, SVG Export Plug-In . SVG Version: 6.00 Build 0)  -->
<svg version="1.1" id="图层_1" xmlns="http://www.w3.org/2000/svg" xmlns:xlink="http://www.w3.org/1999/xlink" x="0px" y="0px"
	 viewBox="0 0 24 24" style="enable-background:new 0 0 24 24;" xml:space="preserve">
<style type="text/css">
	.st0{fill:#040000;}
</style>
<path class="st0" d="M15.6,12.9c-0.3,0-0.6,0-0.9,0c1.1,0.8,1.8,1.8,1.8,3.1v2.3H22v-2.3C22,14,17.8,12.9,15.6,12.9z M8.4,12.9
	C6.2,12.9,2,14,2,16.1v2.3h12.7v-2.3C14.7,14,10.5,12.9,8.4,12.9z M8.4,11.1c1.5,0,2.7-1.2,2.7-2.7S9.9,5.6,8.4,5.6S5.6,6.9,5.6,8.4
	S6.9,11.1,8.4,11.1z M15.6,11.1c1.5,0,2.7-1.2,2.7-2.7s-1.2-2.7-2.7-2.7s-2.7,1.2-2.7,2.7S14.1,11.1,15.6,11.1z"/>
</svg>
