<?xml version="1.0" encoding="utf-8"?>
<!-- Generator: Adobe Illustrator 21.0.0, SVG Export Plug-In . SVG Version: 6.00 Build 0)  -->
<svg version="1.1" id="图层_1" xmlns="http://www.w3.org/2000/svg" xmlns:xlink="http://www.w3.org/1999/xlink" x="0px" y="0px"
	 viewBox="0 0 24 24" style="enable-background:new 0 0 24 24;" xml:space="preserve">
<style type="text/css">
	.st0{fill:#040000;}
</style>
<path class="st0" d="M12,13.1c-3,0-9,1.5-9,4.5V21h18v-3.4C21,14.6,15,13.1,12,13.1z M12,3C9.5,3,7.5,5,7.5,7.5S9.5,12,12,12
	s4.5-2,4.5-4.5S14.5,3,12,3z M12,15.3c3.3,0,6.9,1.6,6.9,2.4v1.2H5.1v-1.2C5.1,16.9,8.7,15.3,12,15.3z M12,5.1
	c1.3,0,2.4,1.1,2.4,2.4S13.3,9.9,12,9.9S9.6,8.8,9.6,7.5S10.7,5.1,12,5.1z"/>
</svg>
