<?xml version="1.0" standalone="no"?><!DOCTYPE svg PUBLIC "-//W3C//DTD SVG 1.1//EN" "http://www.w3.org/Graphics/SVG/1.1/DTD/svg11.dtd"><svg class="icon" style="width: 2em; height: 1em;vertical-align: middle;fill: currentColor;overflow: hidden;" viewBox="0 0 2048 1024" version="1.1" xmlns="http://www.w3.org/2000/svg" p-id="6415"><path d="M860.73344 0.65536h90.58304v867.13344h-90.58304zM634.2144 0.65536h135.81312v867.13344H634.2144zM543.63136 0.65536h45.23008v867.13344h-45.23008zM226.51904 0.65536h45.23008v867.13344h-45.23008zM317.10208 0.65536h135.94624v867.13344H317.10208zM1585.39776 0.65536H1721.344v867.13344h-135.94624zM1313.64864 0.65536h135.94624v867.13344h-135.94624zM1494.81472 0.65536h45.3632v867.13344h-45.3632zM0 0.65536h135.936v1021.98272H0zM1766.69696 0.65536h45.23008v867.13344h-45.23008zM1902.51008 0.65536h135.936v1021.98272h-135.936zM1177.71264 0.65536h90.71616v867.13344h-90.71616zM1041.89952 0.65536h45.23008v867.13344h-45.23008zM1313.64864 913.14176h498.2784v109.49632h-498.2784zM1087.1296 913.14176h135.936v109.49632h-135.936zM226.51904 913.14176h135.81312v109.49632H226.51904zM453.04832 913.14176h543.49824v109.49632H453.04832z" p-id="6416"></path></svg>