<?xml version="1.0" encoding="utf-8"?>
<!-- Generator: Adobe Illustrator 21.0.0, SVG Export Plug-In . SVG Version: 6.00 Build 0)  -->
<svg version="1.1" id="图层_1" xmlns="http://www.w3.org/2000/svg" xmlns:xlink="http://www.w3.org/1999/xlink" x="0px" y="0px"
	 viewBox="0 0 24 24" style="enable-background:new 0 0 24 24;" xml:space="preserve">
<style type="text/css">
	.st0{fill:#040000;}
</style>
<path class="st0" d="M4,5.8l3,0L9,4h6l2,1.8l3,0c1.1,0,2,0.8,2,1.8v10.7c0,1-0.9,1.8-2,1.8H4c-1.1,0-2-0.8-2-1.8V7.6
	C2,6.6,2.9,5.8,4,5.8z M12,8c-2.8,0-5,2.2-5,5c0,2.8,2.2,5,5,5c2.8,0,5-2.2,5-5C17,10.2,14.8,8,12,8z M12,10c1.7,0,3,1.3,3,3
	c0,1.7-1.3,3-3,3c-1.7,0-3-1.3-3-3C9,11.3,10.3,10,12,10z"/>
</svg>
