<?xml version="1.0" standalone="no"?><!DOCTYPE svg PUBLIC "-//W3C//DTD SVG 1.1//EN" "http://www.w3.org/Graphics/SVG/1.1/DTD/svg11.dtd"><svg class="icon" style="width: 3.1552734375em; height: 1em;vertical-align: middle;fill: currentColor;overflow: hidden;" viewBox="0 0 3231 1024" version="1.1" xmlns="http://www.w3.org/2000/svg" p-id="6990"><path d="M827.196361 577.601213l-65.21304-63.272176s-15.138741-11.257013-32.218348 5.046247c0 0-62.884003 61.331312-116.451857 110.629265-50.850644 46.19257-101.701289 93.937832-120.721759 107.523882 0 0-82.292646 84.23351-186.555876 1.940864 0 0-142.032449-111.40561-282.551023-302.774829l-4.595967 22.514025s-5.240334 18.632297 7.212252 36.100076c0 0 109.72094 161.868082 244.766277 277.931767 0 0 67.309174 71.811979 153.405914 87.338893 0 0 71.035633 19.408643 138.57771-34.935558 32.994693-25.231236 104.806672-92.38514 164.973465-149.44655 55.508719-52.791509 99.372252-98.595906 99.372252-98.595906M951.023503 710.356331l-57.449583-63.272176s-6.987111-9.316149-20.573162 2.329037-190.592873 183.993935-258.134951 230.574678c-38.817286 31.053829-80.351782 46.580743-126.544351 50.462471-34.547384 3.881729-71.811979-3.881729-111.56088-19.408643-43.242456-19.408643-109.27066-73.752843-171.106596-136.636846-43.708264-45.416224-87.183624-95.490523-123.71069-144.01213-24.687794-32.994693-48.498317-65.989386-66.416376-94.714178 0 0 0 39.981804 17.483306 73.752843 0 0 72.339894 138.189538 213.518362 266.674754 13.780136 15.526914 134.191357 135.8605 251.109022 131.978772 0 0 109.076573 7.763457 208.448825-73.752843 16.30326-15.526914 190.592873-164.973465 244.937074-223.975739M197.774071 446.398787l65.329492 63.272176s15.02229 11.257013 32.218348-5.046247c0 0 62.689917-61.331312 116.141319-110.629265 50.850644-46.076118 101.701289-93.82138 120.721759-107.40743 0 0 82.292646-85.009856 186.711144-1.940864 0 0 142.459439 111.289158 282.589841 302.658377l4.658075-22.514025s5.046247-18.632297-7.375285-36.100076c0 0-109.464746-161.75163-244.5489-277.815315 0 0-67.542077-71.423806-153.716452-89.279757 0 0-71.035633-16.691433-138.189538 36.100076-32.994693 26.007582-105.078393 93.161486-165.012282 150.222896C241.637604 400.59439 197.774071 446.398787 197.774071 446.398787M73.636391 313.760121l57.410766 63.272176s7.220015 9.316149 20.689613-2.329037c13.469598-11.645186 190.709325-183.605762 258.173768-232.127369 38.817286-27.560273 80.351782-45.416224 126.156179-48.521607 34.935557-2.71721 72.200152 1.940864 111.793783 19.02047 43.47536 19.408643 109.464746 72.588324 171.184231 137.025019 43.47536 45.028052 87.338893 95.10235 123.827142 143.507505 24.45489 32.994693 48.521607 65.989386 66.377558 94.714178 0 0 0-39.981804-17.467778-73.752843 0 0-72.588324-138.073086-213.495072-268.499166-13.974223-12.421531-134.307809-133.151054-251.14784-130.433844 0 0-109.076573-6.210766-208.526459 75.313298-16.147991 13.58605-190.515239 163.808946-244.975891 222.81122m-21.000151 39.981805S153.367096 486.768764 264.345716 574.884003c0 0 42.039121 36.100076 87.067173-4.658074L582.259287 360.729037s69.482942-69.482942 147.893859-0.776346c0 0 164.197119 146.224716 254.253222 268.887339 0 0 5.43442 4.269901 0 12.033359-4.269901 8.15163-13.197877 29.501137-13.197877 29.501137s-98.595906-127.70887-212.718726-222.034875c0 0-44.251706-33.771039-82.680819 1.940865-38.04094 35.711903-218.929492 201.073541-247.654283 222.034874-28.724792 20.961334-76.314784 43.087187-143.623958-17.079605-52.63624-46.968916-190.321152-177.006823-244.510083-258.911297 0 0-4.879333-4.658074-0.970432-13.469598 5.589689-10.480667 13.58605-29.112964 13.58605-29.112964M1376.072782 864.460955c-53.567854 0-97.043215-42.699014-97.043214-97.81956 0-54.3442 43.47536-98.207733 97.043214-98.207733 36.100076 0 67.542077 20.184989 84.233511 49.686126h38.817285c-19.02047-49.297953-66.765732-84.621683-122.662623-84.621683-72.976497 0-131.978772 59.390447-131.978772 132.755117 0 74.917362 59.002274 133.14329 131.978772 133.143291 56.285064 0 104.806672-34.935557 123.438969-85.398029h-38.429113c-16.30326 31.053829-48.521607 50.462472-85.398029 50.462471m1816.648977-129.649734c-21.349507-29.112964-57.06141-26.395754-57.06141-26.395755-20.573161 0-39.981804 8.927976-52.403336 19.408643-19.408643 17.079606-25.619409 42.699014-25.619409 42.699015-16.30326 62.884003 12.809704 101.701289 12.809705 101.701288 14.362396 19.408643 43.087187 27.1721 65.601213 27.172101 39.205459 3.881729 67.93025-11.645186 67.93025-11.645186v-31.053829c-114.510993 42.699014-115.675512-42.699014-115.675512-42.699014h123.438969c1.164519-38.429113-7.375284-63.272176-19.02047-79.187263z m-101.313116 48.133434s7.763457-42.699014 44.251706-42.699014c36.100076 0 37.652767 42.699014 37.652767 42.699014h-81.904473m-251.924185-67.153904c-46.968916-22.514026-79.575436 10.092494-79.575436 10.092494v-105.583018h-37.264594v279.096286h28.336618l5.046247-19.408643c16.30326 19.408643 45.416224 23.290371 45.416225 23.290371 25.231236 0 44.639879-11.645186 58.225929-27.1721 15.915087-15.526914 24.066717-42.699014 25.231235-54.3442 3.493556-27.560273 2.71721-82.680819-45.416224-105.97119z m-35.32373 152.551933c-33.382866 0-44.639879-19.408643-44.639879-19.408643v-90.056103s16.30326-18.244124 43.863533-18.244125c27.1721 0 39.981804 21.349507 43.47536 53.179682 3.493556 31.830174-4.658074 74.529189-42.699014 74.529189m-202.626232-159.539045c-52.791509 0-95.878696 43.087187-95.878696 96.266869 0 51.62699 43.087187 94.326005 95.878696 94.326005s95.878696-42.699014 95.878696-94.326005c0-53.179682-43.087187-96.266869-95.878696-96.266869z m0 159.539045c-34.935557 0-63.272176-27.1721-63.272176-63.272176 0-35.32373 28.336619-63.660349 63.272176-63.660349s63.272176 28.336619 63.272176 63.660349c0 36.100076-28.336619 63.272176-63.272176 63.272176m-248.042457-38.817286L2274.692949 640.873389h-49.686126v258.523124h37.264595v-197.579985l81.904473 197.579985h18.244124l81.904473-196.027294v196.027294h37.652767v-258.523124h-49.297952l-79.187264 188.652009m-276.379075-115.675512c-43.863533-15.915087-90.832449 5.822593-90.832448 5.822593v33.771039s97.043215-43.47536 97.043214 32.994693l-0.388173 1.940864s-53.179682-15.915087-82.292646 1.940864c0 0-45.804397 23.678544-25.231235 78.022745 0 0 15.915087 34.935557 57.449583 34.935557 14.362396 0 31.442002-7.763457 51.62699-19.408643l3.105383 15.526915h31.442001V780.227445s3.881729-49.297953-41.922669-66.377559z m4.658075 138.965884s-16.691433 15.526914-48.90978 15.526914c0 0-29.88931 0-25.231236-31.053829 4.269901-31.053829 42.699014-27.1721 74.141016-19.408643v34.935558M1900.494314 710.356331s-44.639879-11.645186-73.36467 23.678544l-5.822593-21.73768H1793.358605v183.217589h35.32373V772.463988c6.987111-11.257013 26.007582-36.876422 59.390447-31.442002 0 0 19.408643 3.105383 19.408643 35.32373v119.169068h36.876422v-118.004549s5.046247-55.120546-43.863533-67.153904m-263.957544 0s-43.087187-11.257013-71.423806 21.73768v-112.570129h-36.876421v275.990902h36.876421v-124.215315c6.210766-12.033359 24.066717-37.264594 59.002275-30.277483 0 0 19.408643 3.105383 19.408643 35.32373v119.169068h36.876421v-118.004549s4.658074-55.120546-43.863533-67.153904m1276.312358-29.501138h36.876422V640.485216h-36.876422v40.369977z m76.858226 218.54132h34.935557v-279.872631h-34.935557v279.872631z m-76.858226 0h36.876422v-185.546627h-36.876422v185.546627z m-1194.019712-218.54132h36.488249V640.485216h-36.488249v40.369977z m0 218.54132h36.488249v-185.546627h-36.488249v185.546627z m1374.131918-727.319485l1.940865-95.490523h-48.521608s0 42.699014 0.388173 95.490523h-59.77862v43.47536H3047.156937c0.776346 33.382866-0.388173 67.542077-2.329037 91.220622-4.269901 54.3442-12.809704 76.470053-12.809704 76.470053-23.678544 89.939651-93.937832 129.533283-93.937832 129.533283l34.935557 32.994693c124.99166-80.351782 117.616376-258.794845 117.616376-258.794845l1.552692-71.423806h77.634571l-9.316148 235.892646c0 29.501137-28.724792 27.948446-28.724792 27.948446h-53.956027l8.927976 46.580743h51.238817c65.989386 0 68.318423-67.153904 68.318423-67.153905l10.092494-286.74329h-123.438969M2946.231994 470.853677l44.251706-17.079606c-9.316149-22.902199-53.567854-120.605307-53.567855-120.605307l-40.75815 17.467779c11.257013 24.066717 22.514026 50.734193 31.442002 72.860045-20.184989 4.658074-73.36467 17.079606-99.372252 25.619409 0 0 12.809704-20.961334 36.100076-86.057923 19.408643-53.179682 22.902199-69.094769 30.665656-79.187263H3000.576194v-43.47536h-229.798332v43.47536h74.141016c-3.493556 13.58605-15.915087 62.49583-35.711903 109.736467-11.257013 26.783927-23.290371 52.403336-38.817286 71.811979l10.86884 34.159212s116.063685-35.32373 160.703563-39.593632c2.71721 6.987111 4.269901 10.86884 4.269902 10.86884m-155.657316-307.316452h194.086429v-43.863533h-194.086429v43.863533z m-196.027294 146.729341c3.881729-6.987111 7.375284-13.974223 10.480668-21.349508l-42.699015-6.987111c6.598939-3.493556 12.809704-7.375284 18.632297-11.257013 85.009856-55.896892 112.958302-118.392722 112.958302-118.392722v-37.264594h-146.341167c5.822593-9.316149 11.257013-19.02047 15.526914-28.336619l-42.310842-16.30326s-34.547384 75.305534-102.477634 126.544352l36.876421 28.336619s32.218347-29.88931 63.660349-69.482942h124.99166c-17.079606 27.1721-41.922669 49.686126-68.318423 68.318423l-55.120546-45.804397-29.112964 30.277483 46.580743 38.817286c-56.673237 31.442002-110.241092 45.416224-110.241092 45.416224l27.948446 35.711903c40.369977-15.526914 70.64746-27.560273 97.043215-41.146323-6.987111 12.033359-24.843063 39.593632-57.449583 69.482942-19.796816 18.244124-46.580743 37.924488-77.634572 54.615921l33.382866 33.382866s66.377559-34.159212 115.287339-93.433207h93.937831c-10.092494 44.9116-38.817286 76.741774-73.36467 98.479454l-50.462471-49.297953-31.830175 26.007581s28.336619 26.783927 43.47536 43.47536c-67.93025 28.336619-140.130402 30.277483-140.130401 30.277483l19.02047 37.652768c91.220622-6.987111 152.940106-32.218347 196.027293-64.824868 71.423806-54.3442 88.503412-122.934344 88.503412-122.934344v-39.981804h-116.840031m-178.171342 69.871114l29.889311-34.935557-75.693708-64.436695v-22.514025h63.660349v-40.758151h-63.660349v-65.601213c29.501137-6.987111 65.21304-13.974223 65.21304-13.974222l-9.316148-43.475361c-38.429113 12.421531-166.526156 26.007582-166.526156 26.007582l6.598938 43.087187 59.390447-9.704321v63.660348h-71.811978v40.758151H2321.273692c-5.43442 17.079606-28.336619 86.174375-75.305534 151.659135l32.994693 35.711903s27.1721-43.863533 46.968915-88.38696V539.560273h44.639879V336.274147l45.804397 43.863533m-372.645943 20.844883l35.32373-27.831994c-18.632297-21.73768-52.403336-59.77862-52.403336-59.778621l-32.994693 24.843063c28.724792 31.442002 50.074299 62.767551 50.074299 62.767552m-60.943139 5.43442V311.431084h98.595906v-40.75815h-98.595906v-59.77862h107.135709v-40.75815H1832.175891v40.75815h107.523882v59.77862h-99.372252v40.75815h99.372252v94.985899h-114.899166v40.75815h272.109173v-40.75815h-114.12282m184.77028-314.691737H1758.811221V525.58605h408.746019V91.725246z m-408.746019 0z m363.717968 392.714481h-319.854435V134.036088h319.854435v350.403639z m-473.570887-320.902502h-178.559515v-86.562547h-46.968916v86.562547h-177.006823V407.581501h177.006823v133.143291h46.968916V407.581501h178.559515V163.537225z m-225.528431 201.073541h-131.202426v-157.986354h131.202426v157.986354z m-131.202426 0z m310.926459 0h-132.755117v-157.986354H1603.153904v157.986354z" p-id="6991"></path></svg>