<?xml version="1.0" encoding="utf-8"?>
<!-- Generator: Adobe Illustrator 21.0.0, SVG Export Plug-In . SVG Version: 6.00 Build 0)  -->
<svg version="1.1" id="图层_1" xmlns="http://www.w3.org/2000/svg" xmlns:xlink="http://www.w3.org/1999/xlink" x="0px" y="0px"
	 viewBox="0 0 24 24" style="enable-background:new 0 0 24 24;" xml:space="preserve">
<style type="text/css">
	.st0{fill:#040000;}
</style>
<path class="st0" d="M9.7,3c3.7,0,6.7,3,6.7,6.7c0,1.7-0.6,3.2-1.6,4.3l0.3,0.3h0.8l5.1,5.1L19.5,21l-5.1-5.1V15L14,14.8
	c-1.2,1-2.7,1.6-4.3,1.6C6,16.4,3,13.4,3,9.7C3,6,6,3,9.7,3z M9.7,5.1c-2.6,0-4.6,2.1-4.6,4.6c0,2.6,2.1,4.6,4.6,4.6
	c2.6,0,4.6-2.1,4.6-4.6C14.3,7.1,12.2,5.1,9.7,5.1z"/>
</svg>
