<?xml version="1.0" standalone="no"?><!DOCTYPE svg PUBLIC "-//W3C//DTD SVG 1.1//EN" "http://www.w3.org/Graphics/SVG/1.1/DTD/svg11.dtd"><svg t="1520493131327" class="icon" style="" viewBox="0 0 1365 1024" version="1.1" xmlns="http://www.w3.org/2000/svg" p-id="6550" xmlns:xlink="http://www.w3.org/1999/xlink" width="42.65625" height="32"><defs><style type="text/css"></style></defs><path d="M256.006827 42.669796a42.666382 42.666382 0 1 1 85.332764 0v938.660408a42.666382 42.666382 0 1 1-85.332764 0zM554.671502 383.147526c0-23.039846 16.213225-33.279778 37.546417-23.039847l227.838481 114.345905c41.813055 21.333191 40.959727 55.466297 0 75.94616l-33.279778 17.066553-193.705376 96.426024c-21.333191 10.239932-38.399744 0-38.399744-23.039847z" fill="#333333" p-id="6551"></path><path d="M0.008533 384.000853A41.813055 41.813055 0 0 1 41.821588 341.334471h255.998293a42.666382 42.666382 0 0 1 43.51971 42.666382 41.813055 41.813055 0 0 1-41.813054 42.666383h-255.998294A42.666382 42.666382 0 0 1 0.008533 384.000853zM0.008533 639.999147A41.813055 41.813055 0 0 1 41.821588 597.332764h255.998293a42.666382 42.666382 0 0 1 43.51971 42.666383 41.813055 41.813055 0 0 1-41.813054 42.666382h-255.998294A42.666382 42.666382 0 0 1 0.008533 639.999147zM1024.001707 384.000853a41.813055 41.813055 0 0 1 41.813054-42.666382h255.998294a42.666382 42.666382 0 0 1 41.813054 42.666382 41.813055 41.813055 0 0 1-41.813054 42.666383h-255.998294a42.666382 42.666382 0 0 1-41.813054-42.666383zM1024.001707 639.999147a41.813055 41.813055 0 0 1 41.813054-42.666383h255.998294a42.666382 42.666382 0 0 1 41.813054 42.666383 41.813055 41.813055 0 0 1-41.813054 42.666382h-255.998294a42.666382 42.666382 0 0 1-41.813054-42.666382z" fill="#333333" p-id="6552"></path><path d="M1024.001707 42.669796a42.666382 42.666382 0 1 1 85.332764 0v938.660408a42.666382 42.666382 0 1 1-85.332764 0z" fill="#333333" p-id="6553"></path><path d="M1262.933447 0.003413H102.407851A101.54599 101.54599 0 0 0 0.008533 101.549403v820.047866A103.252645 103.252645 0 0 0 102.407851 1023.996587h1160.525596a101.54599 101.54599 0 0 0 102.399318-101.54599V101.549403A103.252645 103.252645 0 0 0 1262.933447 0.003413z m17.066553 870.394198a68.266212 68.266212 0 0 1-67.412884 68.266211H152.754182a68.266212 68.266212 0 0 1-67.412884-68.266211V153.602389a68.266212 68.266212 0 0 1 67.412884-68.266211h1059.832934a68.266212 68.266212 0 0 1 67.412884 68.266211z" fill="#333333" p-id="6554"></path></svg>