<?xml version="1.0" standalone="no"?><!DOCTYPE svg PUBLIC "-//W3C//DTD SVG 1.1//EN" "http://www.w3.org/Graphics/SVG/1.1/DTD/svg11.dtd"><svg t="1516864019437" class="icon" style="" viewBox="0 0 1024 1024" version="1.1" xmlns="http://www.w3.org/2000/svg" p-id="2224" xmlns:xlink="http://www.w3.org/1999/xlink" width="200" height="200"><defs><style type="text/css"></style></defs><path d="M829.333 960H194.667C184.348 960 176 951.652 176 941.333V82.667C176 72.348 184.348 64 194.667 64h453.122a18.658 18.658 0 0 1 13.982 6.306L843.315 275.64c3.027 3.393 4.685 7.803 4.685 12.36v653.333c0 10.319-8.348 18.667-18.667 18.667z" fill="#0DB14B" p-id="2225"></path><path d="M843.314 275.64L661.77 70.306A18.656 18.656 0 0 0 647.789 64H194.667c-10.055 0-18.102 7.97-18.516 17.92h435.798a18.654 18.654 0 0 1 13.981 6.306L807.474 293.56c3.029 3.394 4.686 7.803 4.686 12.36v653.333c0 0.266-0.139 0.484-0.149 0.747h17.323c10.319 0 18.667-8.348 18.667-18.667V288c-0.001-4.558-1.659-8.966-4.687-12.36z" fill="" p-id="2226"></path><path d="M273.066 68.478h29.867v141.867h-29.867zM385.067 68.478h29.867v141.867h-29.867zM497.067 68.478h29.867v141.867h-29.867zM609.067 68.478h29.867v141.867h-29.867z" fill="#152B3C" p-id="2227"></path><path d="M717.333 960H306.667C296.348 960 288 951.652 288 941.333V642.666c0-54.943 34.108-93.333 82.925-93.333h261.333c48.963 0 103.742 39.921 103.742 93.333v298.667c0 10.319-8.348 18.667-18.667 18.667z" fill="#EEEEEE" p-id="2228"></path><path d="M632.258 549.335H370.925c-20.831 0-38.721 7.319-52.688 19.603 5.394-1.065 11-1.683 16.848-1.683h261.333c48.963 0 103.742 39.92 103.742 93.332v298.667c0 0.266-0.139 0.484-0.149 0.747h17.323c10.319 0 18.667-8.348 18.667-18.667V642.666c-0.001-53.412-54.78-93.331-103.743-93.331z" fill="" p-id="2229"></path></svg>