<?xml version="1.0" standalone="no"?><!DOCTYPE svg PUBLIC "-//W3C//DTD SVG 1.1//EN" "http://www.w3.org/Graphics/SVG/1.1/DTD/svg11.dtd"><svg class="icon" style="width: 1em; height: 1em;vertical-align: middle;fill: currentColor;overflow: hidden;" viewBox="0 0 1024 1024" version="1.1" xmlns="http://www.w3.org/2000/svg" p-id="7747"><path d="M864 307.2c-19.2-38.4-89.6-44.8-192-19.2-44.8-38.4-96-51.2-153.6-51.2-153.6 0-281.6 121.6-281.6 275.2v6.4c-70.4 70.4-96 128-76.8 166.4 12.8 25.6 44.8 38.4 89.6 38.4 19.2 0 38.4 0 64-6.4h12.8c51.2 44.8 115.2 76.8 192 76.8 153.6 0 275.2-121.6 275.2-275.2 0-12.8 0-32-6.4-44.8 70.4-70.4 96-128 76.8-166.4z m-345.6-38.4c121.6 0 224 89.6 236.8 204.8-19.2 12.8-38.4 32-57.6 44.8-6.4-6.4-19.2-12.8-32-12.8-25.6 0-44.8 19.2-44.8 44.8 0 6.4 0 12.8 6.4 19.2-19.2 12.8-38.4 19.2-57.6 32-76.8 38.4-153.6 70.4-217.6 89.6-51.2-44.8-76.8-108.8-76.8-179.2 0-134.4 108.8-243.2 243.2-243.2z m-345.6 409.6c-12.8-25.6 6.4-76.8 64-134.4 6.4 57.6 32 115.2 70.4 153.6-70.4 12.8-115.2 6.4-134.4-19.2z m345.6 76.8c-57.6 0-108.8-19.2-147.2-51.2 64-19.2 140.8-44.8 211.2-89.6 19.2-12.8 38.4-19.2 57.6-32 6.4 6.4 19.2 12.8 32 12.8 25.6 0 44.8-19.2 44.8-44.8v-19.2c19.2-12.8 32-25.6 51.2-38.4V512c-12.8 134.4-121.6 243.2-249.6 243.2zM787.2 448c-19.2-64-51.2-115.2-96-153.6 83.2-19.2 140.8-12.8 160 19.2 12.8 25.6-12.8 76.8-64 134.4z" p-id="7748"></path></svg>