<?xml version="1.0" standalone="no"?><!DOCTYPE svg PUBLIC "-//W3C//DTD SVG 1.1//EN" "http://www.w3.org/Graphics/SVG/1.1/DTD/svg11.dtd"><svg t="1516951405437" class="icon" style="" viewBox="0 0 1024 1024" version="1.1" xmlns="http://www.w3.org/2000/svg" p-id="3574" xmlns:xlink="http://www.w3.org/1999/xlink" width="200" height="200"><defs><style type="text/css"></style></defs><path d="M324.505 497.29c-54.22 0-98.315-44.11-98.315-98.33 0-54.218 44.101-98.315 98.315-98.315 54.217 0 98.328 44.097 98.328 98.315 0 54.22-44.111 98.33-98.328 98.33z m0-162.496c-35.387 0-64.167 28.782-64.167 64.166 0 35.386 28.78 64.177 64.167 64.177 35.386 0 64.175-28.79 64.175-64.177 0-35.384-28.79-64.166-64.175-64.166z m142.94 271.387h-34.153c0-59.99-48.798-108.792-108.787-108.792-59.99 0-108.794 48.804-108.794 108.792h-34.148c0-78.822 64.125-142.94 142.942-142.94 78.817 0 142.94 64.118 142.94 142.94z m417.646 260.708h-748.07c-29.92 0-54.265-24.37-54.265-54.299V244.824c0-29.924 24.345-54.283 54.266-54.283h748.075c29.925 0 54.285 24.36 54.285 54.283v567.77c-0.001 29.925-24.365 54.295-54.29 54.295z m-748.07-642.196c-11.087 0-20.111 9.024-20.111 20.131v567.77c0 11.093 9.028 20.14 20.112 20.14h748.075c11.106 0 20.132-9.047 20.132-20.14v-567.77c0-11.106-9.03-20.13-20.132-20.13H137.022zM558.48 361.606h268.709v34.153h-268.71v-34.153z m0 163.433h268.709v34.148h-268.71v-34.148zM180.785 681.417H827.19v34.152H180.785v-34.152z m0 0" p-id="3575"></path></svg>