<?xml version="1.0" standalone="no"?><!DOCTYPE svg PUBLIC "-//W3C//DTD SVG 1.1//EN"
        "http://www.w3.org/Graphics/SVG/1.1/DTD/svg11.dtd">
<svg class="icon" style="width: 1em; height: 1em;vertical-align: middle;fill: currentColor;overflow: hidden;"
     viewBox="0 0 1024 1024" version="1.1" xmlns="http://www.w3.org/2000/svg" p-id="5885">
<path d="M114.5 706.5c-27.57 0-50-22.43-50-50l0-0.169 36-212.001c0.093-27.491 22.487-49.83 50-49.83l320.833 0-30.485-141.532 0-0.198c0-14.295 2.12-24.882 6.302-31.467 4.356-6.858 12.138-10.335 23.129-10.335l84.166 0c10.531 0 17.848 3.117 21.746 9.263 3.763 5.9 5.593 15.843 5.593 30.392l0 0.179L554.266 394.5 894.5 394.5c27.501 0 49.888 22.317 50 49.793l36 212.002 0 0.205c0 27.57-22.43 50-50 50L114.5 706.5zM102.241 633.637C102.368 653.154 121.375 669 144.719 669L900.28 669c23.329 0 42.326-15.821 42.479-35.32L909.986 467.8l0-0.242c0-19.607-19.056-35.558-42.479-35.558L178.079 432c-23.423 0-42.479 15.951-42.479 35.558l0 0.199L102.241 633.637zM199.857 632.362 301.99 530.229l14.89 12.089L214.748 644.451 199.857 632.362zM200.173 552.339l90.989-90.989 13.99 13.989-90.989 90.99L200.173 552.339z"
      p-id="5886"></path>
</svg>