<?xml version="1.0" standalone="no"?><!DOCTYPE svg PUBLIC "-//W3C//DTD SVG 1.1//EN" "http://www.w3.org/Graphics/SVG/1.1/DTD/svg11.dtd"><svg t="1520563858396" class="icon" style="" viewBox="0 0 1024 1024" version="1.1" xmlns="http://www.w3.org/2000/svg" p-id="1750" xmlns:xlink="http://www.w3.org/1999/xlink" width="32" height="32"><defs><style type="text/css"></style></defs><path d="M947.2 228.266667l-17.066667 17.066667 0 0-106.666667 106.666667 0 0C802.133333 371.2 776.533333 384 746.666667 384c-59.733333 0-106.666667-46.933333-106.666667-106.666667 0-29.866667 12.8-55.466667 32-74.666667L640 172.8c-27.733333 27.733333-44.8 64-44.8 104.533333 0 83.2 66.133333 149.333333 149.333333 149.333333 40.533333 0 78.933333-17.066667 104.533333-44.8l0 0 78.933333-78.933333c17.066667 59.733333 8.533333 115.2-27.733333 151.466667L789.333333 571.733333c-14.933333 14.933333-36.266667 25.6-59.733333 25.6 0 0-72.533333-4.266667-145.066667-51.2l0 0c-4.266667-2.133333-6.4-4.266667-10.666667-4.266667-6.4 0-12.8 4.266667-17.066667 8.533333l0 0L230.4 913.066667C215.466667 930.133333 194.133333 938.666667 170.666667 938.666667c-46.933333 0-85.333333-38.4-85.333333-85.333333 0-23.466667 8.533333-44.8 25.6-59.733333L469.333333 469.333333l0 0c6.4-4.266667 8.533333-10.666667 8.533333-17.066667 0-4.266667-2.133333-8.533333-4.266667-12.8l0 0c-61.866667-81.066667-64-142.933333-10.666667-200.533333l113.066667-117.333333C605.866667 91.733333 644.266667 85.333333 672 85.333333l0 0c17.066667 0 32 2.133333 49.066667 6.4L640 170.666667l29.866667 29.866667 106.666667-106.666667 0 0 19.2-19.2c-40.533333-21.333333-85.333333-34.133333-125.866667-34.133333 0 0 0 0 0 0-46.933333 0-91.733333 14.933333-123.733333 49.066667l-115.2 117.333333c-74.666667 81.066667-55.466667 164.266667-4.266667 238.933333L81.066667 763.733333C57.6 785.066667 42.666667 817.066667 42.666667 853.333333c0 70.4 57.6 128 128 128 36.266667 0 68.266667-14.933333 89.6-38.4l317.866667-352c72.533333 40.533333 140.8 46.933333 151.466667 46.933333 32 0 64-12.8 89.6-36.266667l115.2-117.333333C994.133333 424.533333 996.266667 322.133333 947.2 228.266667zM155.733333 838.4C151.466667 842.666667 149.333333 846.933333 149.333333 853.333333c0 12.8 8.533333 21.333333 21.333333 21.333333 12.8 0 21.333333-8.533333 21.333333-21.333333 0-12.8-8.533333-21.333333-21.333333-21.333333C164.266667 832 160 834.133333 155.733333 838.4z" p-id="1751"></path></svg>